<?xml version="1.0" encoding="UTF-8"?>
<svg xmlns="http://www.w3.org/2000/svg" id="a" width="865.76" height="682.89" viewBox="0 0 865.76 682.89">
  <g>
    <rect x="160.42" y="67.37" width="333.22" height="311.69" rx="15.7" ry="15.7" fill="#fff"></rect>
    <path d="M477.95,379.57H176.13c-8.93,0-16.2-7.27-16.2-16.2V83.07c0-8.93,7.27-16.2,16.2-16.2H477.95c8.93,0,16.2,7.27,16.2,16.2V363.36c0,8.93-7.27,16.2-16.2,16.2ZM176.13,67.87c-8.38,0-15.2,6.82-15.2,15.2V363.36c0,8.38,6.82,15.2,15.2,15.2H477.95c8.38,0,15.2-6.82,15.2-15.2V83.07c0-8.38-6.82-15.2-15.2-15.2H176.13Z" fill="#002346"></path>
  </g>
  <g>
    <path d="M477.69,374.25l-302.11-.62c-5.8-.01-10.5-4.72-10.5-10.52V102.44c0-5.81,4.72-10.52,10.53-10.51,.03,0,.05,0,.08,0H477.75c5.81,0,10.51,4.7,10.52,10.51V363.74c0,5.81-4.71,10.52-10.52,10.52-.02,0-.04,0-.06,0Z" fill="#f69074"></path>
    <path d="M477.76,374.76h-.06s-302.11-.62-302.11-.62c-6.06-.01-11-4.95-11-11.02V102.45c0-6.07,4.95-11.01,11.02-11.01H477.75c6.07,0,11.01,4.94,11.02,11.01V363.74c0,6.08-4.94,11.02-11.02,11.02Zm-.06-1h.04c5.54,0,10.04-4.5,10.04-10.02V102.45c0-5.52-4.5-10.01-10.02-10.01H175.68c-5.6,0-10.09,4.49-10.1,10.01V363.11c0,5.51,4.49,10.01,10,10.02l302.11,.62Z" fill="#002346"></path>
  </g>
  <g>
    <rect x="176.66" y="106.64" width="81.63" height="252.86" rx="5.61" ry="5.61" fill="#fff"></rect>
    <path d="M252.69,360h-70.41c-3.37,0-6.11-2.74-6.11-6.11V112.25c0-3.37,2.74-6.11,6.11-6.11h70.41c3.37,0,6.11,2.74,6.11,6.11v241.64c0,3.37-2.74,6.11-6.11,6.11ZM182.27,107.15c-2.82,0-5.11,2.29-5.11,5.11v241.64c0,2.82,2.29,5.11,5.11,5.11h70.41c2.82,0,5.11-2.29,5.11-5.11V112.25c0-2.82-2.29-5.11-5.11-5.11h-70.41Z" fill="#002346"></path>
  </g>
  <g>
    <circle cx="216.63" cy="140.11" r="21.89" fill="#fff"></circle>
    <path d="M216.64,162.5c-12.35,0-22.39-10.04-22.39-22.39s10.04-22.39,22.39-22.39,22.39,10.04,22.39,22.39-10.04,22.39-22.39,22.39Zm0-43.78c-11.79,0-21.39,9.6-21.39,21.39s9.6,21.39,21.39,21.39,21.39-9.6,21.39-21.39-9.6-21.39-21.39-21.39Z" fill="#002346"></path>
  </g>
  <g>
    <circle cx="216.63" cy="133.33" r="5.19" fill="#f69074"></circle>
    <path d="M216.64,139.03c-3.14,0-5.69-2.55-5.69-5.69s2.55-5.69,5.69-5.69,5.69,2.55,5.69,5.69-2.55,5.69-5.69,5.69Zm0-10.38c-2.59,0-4.69,2.1-4.69,4.69s2.1,4.69,4.69,4.69,4.69-2.1,4.69-4.69-2.1-4.69-4.69-4.69Z" fill="#002346"></path>
  </g>
  <g>
    <path d="M207.07,150.97h20.23c.85,0,1.54-.68,1.55-1.53,0-.22-.04-.43-.13-.63-1.41-3.16-4.91-8.69-12.09-8.69,0,0-7.65,0-11,8.73-.31,.8,.08,1.7,.87,2.01,.18,.07,.37,.11,.57,.11Z" fill="#f69074"></path>
    <path d="M227.32,151.46h-20.24c-.26,0-.51-.05-.75-.14-.51-.2-.91-.59-1.13-1.09-.22-.5-.23-1.06-.03-1.57,3.43-8.94,11.39-9.05,11.46-9.05,7.43,0,11.05,5.63,12.55,8.99,.12,.27,.18,.55,.17,.84,0,.54-.22,1.06-.61,1.44-.38,.38-.89,.59-1.43,.59Zm-10.68-10.85c-.3,0-7.35,.12-10.53,8.41-.1,.27-.1,.55,.01,.81,.11,.26,.32,.46,.58,.56,.12,.05,.25,.07,.39,.07h20.23c.24,.02,.54-.1,.74-.3,.2-.19,.31-.46,.31-.73,0-.15-.03-.29-.09-.42-1.4-3.13-4.77-8.39-11.63-8.39Z" fill="#002346"></path>
  </g>
  <g>
    <rect x="184.57" y="178.17" width="19.36" height="17.28" fill="#fff"></rect>
    <path d="M204.44,195.95h-20.36v-18.28h20.36v18.28Zm-19.36-1h18.36v-16.28h-18.36v16.28Z" fill="#002346"></path>
  </g>
  <g>
    <rect x="184.57" y="202.6" width="66.32" height="5.3" fill="#fff"></rect>
    <path d="M251.4,208.41h-67.32v-6.3h67.32v6.3Zm-66.32-1h65.32v-4.3h-65.32v4.3Z" fill="#002346"></path>
  </g>
  <g>
    <rect x="184.31" y="211.47" width="66.32" height="5.3" fill="#fff"></rect>
    <path d="M251.14,217.27h-67.32v-6.3h67.32v6.3Zm-66.32-1h65.32v-4.3h-65.32v4.3Z" fill="#002346"></path>
  </g>
  <g>
    <rect x="184.57" y="220.31" width="66.32" height="5.3" fill="#fff"></rect>
    <path d="M251.4,226.11h-67.32v-6.3h67.32v6.3Zm-66.32-1h65.32v-4.3h-65.32v4.3Z" fill="#002346"></path>
  </g>
  <g>
    <rect x="184.57" y="229.16" width="66.32" height="5.3" fill="#fff"></rect>
    <path d="M251.4,234.96h-67.32v-6.3h67.32v6.3Zm-66.32-1h65.32v-4.3h-65.32v4.3Z" fill="#002346"></path>
  </g>
  <g>
    <rect x="184.57" y="242.47" width="66.32" height="44.18" rx="2.6" ry="2.6" fill="#fff"></rect>
    <path d="M248.29,287.16h-61.12c-1.71,0-3.1-1.39-3.1-3.1v-38.98c0-1.71,1.39-3.1,3.1-3.1h61.12c1.71,0,3.1,1.39,3.1,3.1v38.98c0,1.71-1.39,3.1-3.1,3.1Zm-61.12-44.18c-1.16,0-2.1,.94-2.1,2.1v38.98c0,1.16,.94,2.1,2.1,2.1h61.12c1.16,0,2.1-.94,2.1-2.1v-38.98c0-1.16-.94-2.1-2.1-2.1h-61.12Z" fill="#002346"></path>
  </g>
  <g>
    <rect x="207.8" y="178.17" width="19.36" height="17.28" fill="#fff"></rect>
    <path d="M227.66,195.95h-20.36v-18.28h20.36v18.28Zm-19.36-1h18.36v-16.28h-18.36v16.28Z" fill="#002346"></path>
  </g>
  <g>
    <rect x="231.53" y="178.17" width="19.36" height="17.28" fill="#fff"></rect>
    <path d="M251.4,195.95h-20.36v-18.28h20.36v18.28Zm-19.36-1h18.36v-16.28h-18.36v16.28Z" fill="#002346"></path>
  </g>
  <g>
    <rect x="275.69" y="106.64" width="110.1" height="85.78" rx="3.49" ry="3.49" fill="#fff"></rect>
    <path d="M382.3,192.92h-103.12c-2.2,0-3.99-1.79-3.99-3.99V110.13c0-2.2,1.79-3.99,3.99-3.99h103.12c2.2,0,3.99,1.79,3.99,3.99v78.8c0,2.2-1.79,3.99-3.99,3.99Zm-103.12-85.78c-1.65,0-2.99,1.34-2.99,2.99v78.8c0,1.65,1.34,2.99,2.99,2.99h103.12c1.65,0,2.99-1.34,2.99-2.99V110.13c0-1.65-1.34-2.99-2.99-2.99h-103.12Z" fill="#002346"></path>
  </g>
  <path d="M375.95,180.61h-91.46c-.28,0-.5-.22-.5-.5v-61.87c0-.28,.22-.5,.5-.5s.5,.22,.5,.5v61.37h90.46v-61.37c0-.28,.22-.5,.5-.5s.5,.22,.5,.5v61.87c0,.28-.22,.5-.5,.5Z" fill="#002346"></path>
  <g>
    <path d="M284.49,180.1s27.4-3.87,42.55-26c0,0,19-34.62,51-34.19" fill="#fff"></path>
    <path d="M284.55,180.6l-.14-.99c.27-.04,27.36-4.1,42.21-25.79,.16-.31,19.25-34.41,50.83-34.41,.2,0,.39,0,.59,0v1c-31.32-.42-50.38,33.59-50.57,33.93-15.13,22.1-42.64,26.22-42.92,26.25Z" fill="#002346"></path>
  </g>
  <path d="M306.99,180.61c-.28,0-.5-.22-.5-.5v-61.87c0-.28,.22-.5,.5-.5s.5,.22,.5,.5v61.87c0,.28-.22,.5-.5,.5Z" fill="#002346"></path>
  <path d="M330.21,180.96c-.28,0-.5-.22-.5-.5v-61.87c0-.28,.22-.5,.5-.5s.5,.22,.5,.5v61.87c0,.28-.22,.5-.5,.5Z" fill="#002346"></path>
  <path d="M353.08,180.96c-.28,0-.5-.22-.5-.5v-61.87c0-.28,.22-.5,.5-.5s.5,.22,.5,.5v61.87c0,.28-.22,.5-.5,.5Z" fill="#002346"></path>
  <path d="M375.95,139.03h-91.46c-.28,0-.5-.22-.5-.5s.22-.5,.5-.5h91.46c.28,0,.5,.22,.5,.5s-.22,.5-.5,.5Z" fill="#002346"></path>
  <path d="M375.95,162.5h-91.46c-.28,0-.5-.22-.5-.5s.22-.5,.5-.5h91.46c.28,0,.5,.22,.5,.5s-.22,.5-.5,.5Z" fill="#002346"></path>
  <g>
    <rect x="399.24" y="106.64" width="111.62" height="85.78" rx="3.4" ry="3.4" fill="#fbe493"></rect>
    <path d="M507.46,192.92h-104.82c-2.15,0-3.9-1.75-3.9-3.9V110.04c0-2.15,1.75-3.9,3.9-3.9h104.82c2.15,0,3.9,1.75,3.9,3.9v78.98c0,2.15-1.75,3.9-3.9,3.9Zm-104.82-85.78c-1.6,0-2.9,1.3-2.9,2.9v78.98c0,1.6,1.3,2.9,2.9,2.9h104.82c1.6,0,2.9-1.3,2.9-2.9V110.04c0-1.6-1.3-2.9-2.9-2.9h-104.82Z" fill="#002346"></path>
  </g>
  <g>
    <rect x="411.34" y="123.09" width="85.47" height="53.36" rx="3.71" ry="3.71" fill="#fff"></rect>
    <path d="M493.11,176.95h-78.05c-2.32,0-4.21-1.89-4.21-4.21v-45.94c0-2.32,1.89-4.21,4.21-4.21h78.05c2.32,0,4.21,1.89,4.21,4.21v45.94c0,2.32-1.89,4.21-4.21,4.21Zm-78.05-53.36c-1.77,0-3.21,1.44-3.21,3.21v45.94c0,1.77,1.44,3.21,3.21,3.21h78.05c1.77,0,3.21-1.44,3.21-3.21v-45.94c0-1.77-1.44-3.21-3.21-3.21h-78.05Z" fill="#002346"></path>
  </g>
  <path d="M490.13,170.11h-71.54c-.28,0-.5-.22-.5-.5v-25.26c0-.28,.22-.5,.5-.5s.5,.22,.5,.5v24.76h70.54v-35.34c0-.28,.22-.5,.5-.5s.5,.22,.5,.5v35.84c0,.28-.22,.5-.5,.5Z" fill="#002346"></path>
  <path d="M468.53,151.33c-7.14,0-14-5.67-14.84-6.38-8-5-12.28,1.57-12.46,1.85-.04,.06-.09,.12-.14,.17-1.94,2.14-4.65,3.42-7.54,3.55-2.64,.05-5.21-.89-7.2-2.63-4.44-3.73-7.28-2.56-7.3-2.55-.55,.26-1.21,.02-1.47-.53s-.02-1.21,.53-1.47c.16-.08,4.07-1.83,9.66,2.85,1.57,1.38,3.6,2.13,5.69,2.12,2.29-.11,4.45-1.12,6-2.81,.71-1,6.21-8.23,15.5-2.38l.13,.1c.11,.09,11.12,9.54,18.85,4.28,1.4-1,2.48-2.39,3.09-4,1.6-4,6.12-13,13.44-10.77,.58,.18,.91,.8,.73,1.38-.18,.58-.8,.91-1.38,.73-5.58-1.72-9.37,6.06-10.75,9.49-.77,2.02-2.13,3.76-3.89,5-1.96,1.33-4.28,2.03-6.65,2Z" fill="#f69074"></path>
  <g>
    <rect x="273.82" y="205.25" width="204.84" height="90.87" rx="6.36" ry="6.36" fill="#fff"></rect>
    <path d="M472.3,296.62h-192.12c-3.78,0-6.86-3.08-6.86-6.86v-78.15c0-3.78,3.08-6.86,6.86-6.86h192.12c3.78,0,6.86,3.08,6.86,6.86v78.15c0,3.78-3.08,6.86-6.86,6.86Zm-192.12-90.87c-3.23,0-5.86,2.63-5.86,5.86v78.15c0,3.23,2.63,5.86,5.86,5.86h192.12c3.23,0,5.86-2.63,5.86-5.86v-78.15c0-3.23-2.63-5.86-5.86-5.86h-192.12Z" fill="#002346"></path>
  </g>
  <g>
    <path d="M333.8,250.69c0,.43,.06,.88,.06,1.32,0,4.76-2.15,9.27-5.86,12.25l8.75,13.43c8.23-5.96,13.1-15.51,13.1-25.68,0-1.53-.11-3.06-.33-4.58l-15.72,3.26Z" fill="#fbe493"></path>
    <path d="M336.61,278.41l-9.28-14.25,.35-.28c3.61-2.91,5.68-7.23,5.67-11.86,0-.21-.01-.42-.03-.63-.02-.23-.03-.46-.03-.69v-.41l16.64-3.45,.07,.53c.22,1.53,.33,3.1,.34,4.65,0,10.29-4.97,20.05-13.31,26.09l-.43,.31Zm-7.96-14.04l8.22,12.61c7.82-5.87,12.48-15.16,12.47-24.96,0-1.33-.09-2.66-.25-3.98l-14.78,3.07c0,.07,0,.14,.01,.21,.02,.23,.03,.47,.03,.7,0,4.79-2.07,9.26-5.7,12.35Z" fill="#002346"></path>
  </g>
  <g>
    <path d="M348.84,244.06c-2.09-8.03-7.24-14.92-14.34-19.21l-7.79,14c3.1,2.02,5.39,5.06,6.47,8.59l15.66-3.38Z" fill="#e6e7e8"></path>
    <path d="M332.83,248.03l-.13-.44c-1.05-3.42-3.27-6.37-6.26-8.32l-.39-.25,8.27-14.86,.44,.27c7.26,4.38,12.43,11.31,14.57,19.51l.13,.5-16.62,3.59Zm-5.47-9.33c2.87,1.99,5.03,4.86,6.15,8.17l14.7-3.17c-2.1-7.56-6.88-13.97-13.54-18.13l-7.31,13.14Z" fill="#002346"></path>
  </g>
  <g>
    <rect x="368.52" y="221.45" width="16.25" height="64.25" rx="3.53" ry="3.53" fill="#f69074"></rect>
    <path d="M381.23,286.2h-9.19c-2.22,0-4.03-1.81-4.03-4.03v-57.19c0-2.22,1.81-4.03,4.03-4.03h9.19c2.22,0,4.03,1.81,4.03,4.03v57.19c0,2.22-1.81,4.03-4.03,4.03Zm-9.19-64.25c-1.67,0-3.03,1.36-3.03,3.03v57.19c0,1.67,1.36,3.03,3.03,3.03h9.19c1.67,0,3.03-1.36,3.03-3.03v-57.19c0-1.67-1.36-3.03-3.03-3.03h-9.19Z" fill="#002346"></path>
  </g>
  <g>
    <rect x="368.52" y="239.38" width="16.25" height="46.31" rx="3.53" ry="3.53" fill="#fff"></rect>
    <path d="M381.23,286.2h-9.19c-2.22,0-4.03-1.81-4.03-4.03v-39.25c0-2.22,1.81-4.03,4.03-4.03h9.19c2.22,0,4.03,1.81,4.03,4.03v39.25c0,2.22-1.81,4.03-4.03,4.03Zm-9.19-46.31c-1.67,0-3.03,1.36-3.03,3.03v39.25c0,1.67,1.36,3.03,3.03,3.03h9.19c1.67,0,3.03-1.36,3.03-3.03v-39.25c0-1.67-1.36-3.03-3.03-3.03h-9.19Z" fill="#002346"></path>
  </g>
  <g>
    <rect x="394.55" y="221.45" width="16.25" height="64.25" rx="3.53" ry="3.53" fill="#fbe493"></rect>
    <path d="M407.26,286.2h-9.19c-2.22,0-4.03-1.81-4.03-4.03v-57.19c0-2.22,1.81-4.03,4.03-4.03h9.19c2.22,0,4.03,1.81,4.03,4.03v57.19c0,2.22-1.81,4.03-4.03,4.03Zm-9.19-64.25c-1.67,0-3.03,1.36-3.03,3.03v57.19c0,1.67,1.36,3.03,3.03,3.03h9.19c1.67,0,3.03-1.36,3.03-3.03v-57.19c0-1.67-1.36-3.03-3.03-3.03h-9.19Z" fill="#002346"></path>
  </g>
  <g>
    <rect x="394.55" y="255.56" width="16.25" height="30.13" rx="3.53" ry="3.53" fill="#fff"></rect>
    <path d="M407.26,286.2h-9.19c-2.22,0-4.03-1.81-4.03-4.03v-23.07c0-2.22,1.81-4.03,4.03-4.03h9.19c2.22,0,4.03,1.81,4.03,4.03v23.07c0,2.22-1.81,4.03-4.03,4.03Zm-9.19-30.13c-1.67,0-3.03,1.36-3.03,3.03v23.07c0,1.67,1.36,3.03,3.03,3.03h9.19c1.67,0,3.03-1.36,3.03-3.03v-23.07c0-1.67-1.36-3.03-3.03-3.03h-9.19Z" fill="#002346"></path>
  </g>
  <g>
    <rect x="420.28" y="221.45" width="16.25" height="64.25" rx="3.53" ry="3.53" fill="#f69074"></rect>
    <path d="M433,286.2h-9.19c-2.22,0-4.03-1.81-4.03-4.03v-57.19c0-2.22,1.81-4.03,4.03-4.03h9.19c2.22,0,4.03,1.81,4.03,4.03v57.19c0,2.22-1.81,4.03-4.03,4.03Zm-9.19-64.25c-1.67,0-3.03,1.36-3.03,3.03v57.19c0,1.67,1.36,3.03,3.03,3.03h9.19c1.67,0,3.03-1.36,3.03-3.03v-57.19c0-1.67-1.36-3.03-3.03-3.03h-9.19Z" fill="#002346"></path>
  </g>
  <g>
    <rect x="420.28" y="267.74" width="16.25" height="17.97" rx="3.53" ry="3.53" fill="#fff"></rect>
    <path d="M433,286.2h-9.19c-2.22,0-4.03-1.81-4.03-4.03v-10.91c0-2.22,1.81-4.03,4.03-4.03h9.19c2.22,0,4.03,1.81,4.03,4.03v10.91c0,2.22-1.81,4.03-4.03,4.03Zm-9.19-17.97c-1.67,0-3.03,1.36-3.03,3.03v10.91c0,1.67,1.36,3.03,3.03,3.03h9.19c1.67,0,3.03-1.36,3.03-3.03v-10.91c0-1.67-1.36-3.03-3.03-3.03h-9.19Z" fill="#002346"></path>
  </g>
  <g>
    <rect x="446.93" y="221.45" width="16.25" height="64.25" rx="3.53" ry="3.53" fill="#fbe493"></rect>
    <path d="M459.66,286.2h-9.19c-2.22,0-4.03-1.81-4.03-4.03v-57.19c0-2.22,1.81-4.03,4.03-4.03h9.19c2.22,0,4.03,1.81,4.03,4.03v57.19c0,2.22-1.81,4.03-4.03,4.03Zm-9.19-64.25c-1.67,0-3.03,1.36-3.03,3.03v57.19c0,1.67,1.36,3.03,3.03,3.03h9.19c1.67,0,3.03-1.36,3.03-3.03v-57.19c0-1.67-1.36-3.03-3.03-3.03h-9.19Z" fill="#002346"></path>
  </g>
  <g>
    <rect x="446.93" y="247.43" width="16.25" height="38.27" rx="3.53" ry="3.53" fill="#fff"></rect>
    <path d="M459.66,286.2h-9.19c-2.22,0-4.03-1.81-4.03-4.03v-31.21c0-2.22,1.81-4.03,4.03-4.03h9.19c2.22,0,4.03,1.81,4.03,4.03v31.21c0,2.22-1.81,4.03-4.03,4.03Zm-9.19-38.27c-1.67,0-3.03,1.36-3.03,3.03v31.21c0,1.67,1.36,3.03,3.03,3.03h9.19c1.67,0,3.03-1.36,3.03-3.03v-31.21c0-1.67-1.36-3.03-3.03-3.03h-9.19Z" fill="#002346"></path>
  </g>
  <g>
    <rect x="273.82" y="313.4" width="63.95" height="46.11" rx="3.1" ry="3.1" fill="#fff"></rect>
    <path d="M334.68,360h-57.75c-1.99,0-3.6-1.62-3.6-3.6v-39.91c0-1.98,1.61-3.6,3.6-3.6h57.75c1.98,0,3.6,1.62,3.6,3.6v39.91c0,1.98-1.61,3.6-3.6,3.6Zm-57.75-46.11c-1.43,0-2.6,1.17-2.6,2.6v39.91c0,1.43,1.17,2.6,2.6,2.6h57.75c1.43,0,2.6-1.17,2.6-2.6v-39.91c0-1.43-1.17-2.6-2.6-2.6h-57.75Z" fill="#002346"></path>
  </g>
  <g>
    <rect x="343.97" y="313.4" width="134.69" height="46.11" rx="3.1" ry="3.1" fill="#fbe493"></rect>
    <path d="M475.56,360h-128.49c-1.99,0-3.6-1.62-3.6-3.6v-39.91c0-1.98,1.61-3.6,3.6-3.6h128.49c1.99,0,3.6,1.62,3.6,3.6v39.91c0,1.98-1.61,3.6-3.6,3.6Zm-128.49-46.11c-1.43,0-2.6,1.17-2.6,2.6v39.91c0,1.43,1.17,2.6,2.6,2.6h128.49c1.43,0,2.6-1.17,2.6-2.6v-39.91c0-1.43-1.17-2.6-2.6-2.6h-128.49Z" fill="#002346"></path>
  </g>
  <path d="M458.84,345.13c-7.28,0-13.07-8.31-13.34-8.71-6.67-7.76-12.05-7.84-12.11-7.84-5.15-.56-10.67,5.89-10.72,5.95l-5.66,6.44c-1.18,1.38-2.7,2.47-4.4,3.14-8,2.98-12.9-6.05-12.95-6.14-4.26-8.14-11.53-8.94-11.61-8.95-.03,0-.07-.01-.1-.02-8.56-2.66-15.01,7.53-16.78,10.72-.49,.91-1.12,1.72-1.89,2.41-2.02,1.75-4.14,2.51-6.3,2.22-3.96-.51-6.59-4.28-6.7-4.44-2.64-4.82-7.16-8.35-12.43-9.72-.27-.07-.43-.34-.36-.61,.07-.27,.34-.43,.61-.36,5.53,1.44,10.29,5.15,13.03,10.16h0s2.47,3.53,5.98,3.97c1.86,.24,3.71-.43,5.5-1.98,.68-.61,1.24-1.33,1.68-2.14,1.87-3.35,8.65-14.05,17.91-11.21,.76,.08,7.97,1.11,12.34,9.47,.18,.34,4.55,8.34,11.71,5.67,1.54-.6,2.93-1.59,4-2.85l5.66-6.44c.23-.28,5.9-6.91,11.53-6.3,.17-.01,5.8,.04,12.85,8.23,.1,.15,7.24,10.39,15.05,7.94h0s3.58-1.58,6.26-6.75c.36-.72,.77-1.44,1.21-2.13,1.97-2.98,5.85-7.99,9.77-8.09,.27-.03,.51,.21,.51,.49,0,.28-.21,.5-.49,.51-3.6,.09-7.46,5.37-8.96,7.64-.42,.65-.81,1.34-1.16,2.04-2.85,5.52-6.64,7.17-6.8,7.24-.97,.3-1.92,.44-2.85,.44Z" fill="#002346"></path>
  <path d="M478.66,336.42h-134.68c-.28,0-.5-.22-.5-.5s.22-.5,.5-.5h134.68c.28,0,.5,.22,.5,.5s-.22,.5-.5,.5Z" fill="#002346"></path>
  <path d="M367.11,360c-.28,0-.5-.22-.5-.5v-46.11c0-.28,.22-.5,.5-.5s.5,.22,.5,.5v46.11c0,.28-.22,.5-.5,.5Z" fill="#002346"></path>
  <path d="M389.58,360c-.28,0-.5-.22-.5-.5v-46.11c0-.28,.22-.5,.5-.5s.5,.22,.5,.5v46.11c0,.28-.22,.5-.5,.5Z" fill="#002346"></path>
  <path d="M411.31,360c-.28,0-.5-.22-.5-.5v-46.11c0-.28,.22-.5,.5-.5s.5,.22,.5,.5v46.11c0,.28-.22,.5-.5,.5Z" fill="#002346"></path>
  <path d="M433.62,360c-.28,0-.5-.22-.5-.5v-46.11c0-.28,.22-.5,.5-.5s.5,.22,.5,.5v46.11c0,.28-.22,.5-.5,.5Z" fill="#002346"></path>
  <path d="M456.13,360c-.28,0-.5-.22-.5-.5v-46.11c0-.28,.22-.5,.5-.5s.5,.22,.5,.5v46.11c0,.28-.22,.5-.5,.5Z" fill="#002346"></path>
  <g>
    <path d="M320.56,338.44l3.57-.13-.23-5.91-3.64,.14c-.55-2.15-1.58-4.14-3-5.84l2.6-2.94-4.44-3.91-2.73,3.1c-1.53-.8-3.18-1.33-4.89-1.56l-.17-4.44-5.91,.22,.18,4.61c-1.81,.5-3.5,1.33-5,2.46l-2.79-2.63-4.06,4.31,2.91,2.73c-.89,1.55-1.51,3.24-1.81,5l-3.65,.14,.23,5.91,3.57-.14c.42,1.85,1.2,3.6,2.28,5.16l-3,3.44,4.43,3.91,2.87-3.25c1.58,1.01,3.35,1.71,5.19,2.06l.15,4.05,5.91-.22-.15-3.89c1.86-.39,3.62-1.13,5.2-2.19l2.62,2.46,4.05-4.3-2.5-2.36c1.16-1.81,1.92-3.86,2.21-5.99Zm-14.37,8c-5.84,.11-10.66-4.53-10.77-10.37-.11-5.84,4.53-10.66,10.37-10.77,5.84-.11,10.66,4.53,10.77,10.37,0,.07,0,.13,0,.2,.06,5.78-4.59,10.51-10.37,10.57h0Z" fill="#f69074"></path>
    <path d="M302.74,355.45l-.15-4.16c-1.63-.36-3.18-.97-4.61-1.82l-2.92,3.31-5.18-4.57,3.07-3.52c-.93-1.42-1.62-2.96-2.04-4.61l-3.66,.14-.27-6.91,3.75-.14c.31-1.55,.85-3.03,1.6-4.42l-2.99-2.81,4.75-5.04,2.85,2.69c1.36-.97,2.85-1.7,4.44-2.18l-.18-4.72,6.91-.26,.17,4.53c1.49,.24,2.93,.7,4.29,1.37l2.8-3.18,5.19,4.57-2.65,3c1.24,1.57,2.17,3.39,2.72,5.31l3.74-.14,.27,6.91-3.66,.13c-.32,1.91-1,3.77-2,5.42l2.57,2.42-4.73,5.03-2.7-2.53c-1.43,.91-2.98,1.56-4.63,1.95l.15,3.97-6.91,.26Zm-4.95-7.28l.36,.23c1.54,.98,3.23,1.65,5.02,1.99l.39,.08,.15,3.95,4.91-.18-.15-3.81,.41-.09c1.8-.38,3.49-1.09,5.02-2.12l.33-.22,2.55,2.39,3.37-3.57-2.44-2.3,.22-.35c1.12-1.74,1.85-3.74,2.14-5.79l.06-.42,3.49-.13-.19-4.91-3.54,.14-.1-.39c-.53-2.06-1.53-4.01-2.9-5.64l-.28-.33,2.55-2.89-3.69-3.25-2.66,3.02-.35-.18c-1.48-.78-3.07-1.28-4.73-1.51l-.42-.06-.17-4.36-4.91,.18,.18,4.51-.38,.11c-1.75,.48-3.38,1.28-4.83,2.38l-.34,.25-2.73-2.58-3.37,3.58,2.83,2.66-.2,.34c-.87,1.5-1.46,3.13-1.75,4.83l-.07,.4-3.55,.14,.19,4.91,3.48-.14,.09,.4c.41,1.8,1.15,3.47,2.2,4.99l.22,.32-2.93,3.36,3.68,3.25,2.82-3.2Zm8.2-1.23c-6.01,0-10.95-4.83-11.07-10.86-.12-6.1,4.76-11.16,10.86-11.28,6.1-.08,11.16,4.76,11.28,10.86v.21c.06,6.04-4.81,11.01-10.86,11.07-.07,0-.14,0-.21,0Zm0-21.14c-.06,0-.13,0-.19,0-5.55,.11-9.98,4.71-9.88,10.26,.1,5.55,4.71,9.94,10.26,9.88h0c5.5-.05,9.93-4.57,9.87-10.07v-.19c-.11-5.49-4.6-9.88-10.07-9.88Z" fill="#002346"></path>
  </g>
  <g>
    <polygon points="548.06 489.59 511.23 612.98 521.28 612.98 553.38 504.4 553.38 612.98 564.12 612.98 564.12 503.77 596.23 612.98 607.88 612.98 571.04 489.59 548.06 489.59" fill="#e6e7e8"></polygon>
    <path d="M608.56,613.49h-12.7l-.11-.36-31.13-105.89v106.25h-11.74v-105.64l-31.24,105.64h-11.08l.19-.64,36.94-123.75h23.73l.11,.36,37.03,124.03Zm-11.95-1h10.6l-36.54-122.39h-22.23l-36.53,122.39h9l32.98-111.54v111.54h9.74v-112.19l32.98,112.19Z" fill="#002346"></path>
  </g>
  <g>
    <rect x="392.02" y="459.65" width="11.18" height="155.86" fill="#fff"></rect>
    <path d="M403.7,616.02h-12.18v-156.86h12.18v156.86Zm-11.18-1h10.18v-154.86h-10.18v154.86Z" fill="#002346"></path>
  </g>
  <g>
    <rect x="671.59" y="459.65" width="11.18" height="155.86" fill="#fff"></rect>
    <path d="M683.26,616.02h-12.18v-156.86h12.18v156.86Zm-11.18-1h10.18v-154.86h-10.18v154.86Z" fill="#002346"></path>
  </g>
  <g>
    <path d="M471.95,382.13l25.96-.84c.31-.01,.61,.13,.8,.38l28.86,37.28c.49,.63,.06,1.55-.74,1.58l-27.52,.88c-.32,.01-.63-.14-.82-.4l-27.3-37.32c-.46-.63-.03-1.53,.76-1.55Z" fill="#fbe493"></path>
    <path d="M499.28,421.91c-.47,0-.92-.22-1.2-.61l-27.3-37.32c-.32-.44-.38-1.03-.14-1.52,.24-.49,.73-.81,1.28-.83l25.96-.84c.48,0,.93,.2,1.22,.57l28.86,37.28c.34,.44,.41,1.03,.17,1.53-.24,.5-.73,.83-1.29,.85l-27.52,.88h-.05Zm-1.35-40.12h-.01l-25.96,.84c-.26,0-.38,.19-.41,.27-.04,.08-.11,.28,.04,.49l27.3,37.32c.09,.13,.25,.2,.4,.2l27.52-.88c.26,0,.38-.19,.42-.27,.08-.17,.06-.35-.05-.5l-28.86-37.28c-.09-.12-.23-.18-.38-.18Z" fill="#002346"></path>
  </g>
  <g>
    <path d="M586.69,321.03c-1.53,4.14-21.36,8.51-21.36,8.51,.08-.26,.17-.53,.24-.78h0c.4-1.54,.55-7.13,.45-8.71,5.48-4.98,9.01-7.75,9.94-15.1,.38-2.42,.49-4.88,.32-7.33l5.13-8.21,8.83,.82-6.14,15.71,1.89,5.08c-.5,2.9,.7,10.01,.7,10.01Z" fill="#f2b3c1"></path>
    <path d="M564.62,330.21l.33-1.07c.05-.17,.11-.34,.15-.5,.37-1.44,.54-6.9,.43-8.55l-.02-.24,1.13-1.03c4.97-4.49,7.97-7.2,8.83-13.93,.38-2.4,.48-4.83,.32-7.24v-.16s5.36-8.6,5.36-8.6l9.78,.91-6.31,16.14,1.87,5.03-.02,.13c-.48,2.78,.69,9.77,.7,9.84l.02,.13-.05,.12c-1.58,4.27-19.66,8.37-21.72,8.82l-.82,.18Zm1.91-9.94c.07,1.82-.07,7.04-.47,8.62,5.87-1.35,18.74-4.89,20.13-7.9-.17-1.03-1.12-7.08-.7-9.9l-1.91-5.13,5.97-15.28-7.88-.73-4.89,7.82c.15,2.43,.04,4.88-.34,7.28-.9,7.08-4.18,10.04-9.14,14.52l-.78,.71Z" fill="#002346"></path>
  </g>
  <g>
    <path d="M551.17,383.74c-19.24,4-29.52-12.16-29.52-12.16l-19.96-26.24c-.61-.8-.76-1.86-.4-2.8,1.46-3.79,5.85-7.27,8-8.78,.79-.57,1.82-.72,2.74-.4,9.06,3.33,27.49,25.81,27.83,25.59,.29-.19,15.16-13.29,19.18-16.83,.66-.58,1.14-1.32,1.4-2.15l1.25-3.93c1.53-6.85,3.66-6.49,3.66-6.49,0,0,20.54-4.61,21.37-8.5v-2.6s2-.12,10.27,15.47c0,0,6.85,9.91,8.14,29.87l-2.12,64.81h-54.17v-4.15s-9.29-.16-12-2.2l-5.24-.07c-.55,0-1-.45-1-1v-14.73c0-.55,.45-1,1-1l14.36,.07c1.1-1.91,2.94-3.28,5.09-3.78l.11-18Z" fill="#f69074"></path>
    <path d="M603.51,429.1h-55.15v-4.16c-1.96-.06-9.07-.42-11.66-2.19l-5.08-.07c-.82,0-1.49-.67-1.49-1.5v-14.73c0-.83,.67-1.5,1.5-1.5l14.08,.07c1.11-1.78,2.86-3.1,4.88-3.67l.1-17c-18.97,3.56-29.33-12.34-29.44-12.5l-19.94-26.21c-.72-.95-.9-2.17-.47-3.28,1.56-4.04,6.24-7.65,8.18-9.01,.92-.66,2.11-.84,3.19-.46,7.11,2.61,19.84,16.76,25.28,22.8,1.03,1.15,1.95,2.17,2.39,2.62,1.73-1.48,10.96-9.61,18.85-16.56,.58-.51,1.02-1.18,1.26-1.93l1.25-3.93c1.44-6.43,3.47-6.89,4.1-6.84,7.78-1.75,20.21-5.46,20.9-8.05v-3.01l.47-.03c.56-.08,2.93,1.01,10.74,15.73,.04,.05,6.91,10.2,8.2,30.07l-2.14,65.34Zm-54.15-1h53.19l2.1-64.33c-1.27-19.55-7.98-29.47-8.05-29.57-5.61-10.57-8.29-13.83-9.36-14.83v1.78c-.88,4.09-19.63,8.4-21.76,8.88l-.1,.02-.1-.02s-1.73,.01-3.09,6.11l-1.27,3.97c-.29,.92-.83,1.74-1.55,2.37-7.05,6.22-18.94,16.68-19.24,16.88q-.44,.28-3.4-3.01c-5.39-5.99-18.01-20-24.87-22.53-.76-.27-1.61-.14-2.28,.34-1.87,1.31-6.37,4.77-7.83,8.55-.3,.78-.18,1.65,.33,2.32l19.96,26.24c.12,.19,10.35,15.86,29.02,11.97l.61-.13-.12,19.01-.38,.09c-2.01,.46-3.74,1.75-4.77,3.54l-.14,.25-14.65-.07c-.27,0-.5,.22-.5,.5v14.73c0,.28,.22,.5,.5,.5l5.41,.07,.13,.1c2.55,1.92,11.62,2.1,11.71,2.1h.49v4.15Z" fill="#002346"></path>
  </g>
  <g>
    <path d="M530.69,417.93s-7.41,2.38-14.25,0c0,0-20.15-6.67-17.81-14.36,0,0,1.92-8,15.35,0,0,0,1.68,.68,.91-1.33l-2.42-3.18s4.33-.77,10.4,2.45c.93,.5,1.8,1.1,2.6,1.79,1.54,1.35,3.31,2.41,5.22,3.15v11.48Z" fill="#f2b3c1"></path>
    <path d="M523.2,419.48c-2.16,0-4.56-.27-6.92-1.09-.83-.28-20.57-6.91-18.12-14.97,.02-.07,.58-2.33,3.09-3.38,3.02-1.27,7.39-.23,12.98,3.11,.09,.03,.31,.06,.38,.03-.01,0,.03-.19-.16-.7l-2.86-3.76,.79-.14c.18-.03,4.57-.76,10.72,2.5,.96,.52,1.87,1.14,2.69,1.85,1.51,1.32,3.21,2.34,5.08,3.06l.31,.12v12.17l-.34,.11c-.2,.07-3.46,1.09-7.64,1.09Zm-19.18-18.97c-1,0-1.77,.18-2.37,.43-2.05,.85-2.52,2.67-2.54,2.75-2.18,7.17,17.29,13.71,17.49,13.78,5.79,2.01,12.09,.51,13.6,.1v-10.78c-1.85-.75-3.55-1.8-5.05-3.11-.77-.66-1.61-1.24-2.51-1.73-4.29-2.28-7.71-2.49-9.23-2.46l1.94,2.58c.12,.32,.49,1.28-.06,1.83-.51,.5-1.33,.2-1.49,.13-4.54-2.7-7.66-3.51-9.78-3.51Z" fill="#002346"></path>
  </g>
  <g>
    <path d="M484.4,316.87l7.21,4.52c.99,.62,2.23,.65,3.26,.1,8.74-4.65,14.41,12.26,14.41,12.26-6.12,4.18-7.6,8-7.6,8-7.62-.68-16.58-11-19.23-14.2-.46-.57-.46-1.38,0-1.95h0c.53-.68,1.51-.81,2.19-.28,.02,.01,.03,.03,.05,.04l4.43,3.67c.34,.29,.85,.24,1.14-.1,.13-.16,.2-.36,.19-.56l-.11-2.52c-.04-.91-.52-1.73-1.28-2.23l-6.36-4.18c-.72-.47-.92-1.43-.46-2.14,.01-.02,.03-.04,.04-.06h0c.49-.67,1.43-.84,2.12-.37Z" fill="#f2b3c1"></path>
    <path d="M502,342.28l-.37-.03c-7.46-.67-16.17-10.28-19.57-14.38-.61-.75-.61-1.83,0-2.57,.33-.42,.81-.7,1.36-.77,.54-.07,1.08,.08,1.52,.41l4.5,3.72c.07,.06,.15,.08,.23,.08,.08,0,.16-.05,.22-.11,.05-.06,.08-.14,.07-.22l-.11-2.52c-.04-.74-.43-1.43-1.06-1.84l-6.36-4.18c-.94-.61-1.21-1.88-.6-2.82,.7-.97,1.92-1.18,2.84-.57l7.2,4.52c.84,.52,1.9,.55,2.77,.08,1.89-1.01,3.79-1.14,5.65-.4,5.85,2.33,9.31,12.5,9.46,12.93l.12,.35-.31,.21c-5.89,4.03-7.4,7.74-7.42,7.77l-.13,.34Zm-18.32-16.79s-.09,0-.14,0c-.28,.04-.53,.18-.71,.41-.32,.39-.32,.95,0,1.34,3.26,3.94,11.53,13.08,18.55,13.98,.51-1.04,2.36-4.21,7.31-7.66-.66-1.8-3.92-10.05-8.77-11.99-1.58-.63-3.2-.51-4.82,.35-1.18,.63-2.61,.59-3.75-.12l-7.23-4.53c-.47-.32-1.11-.21-1.45,.25-.34,.52-.2,1.18,.29,1.5l6.36,4.18c.89,.58,1.45,1.56,1.5,2.62l.11,2.52c.02,.33-.09,.65-.3,.9-.22,.27-.54,.43-.88,.46-.34,.03-.68-.08-.95-.3l-4.43-3.67c-.22-.17-.46-.25-.69-.25Z" fill="#002346"></path>
  </g>
  <g>
    <polygon points="448.15 581.83 446.34 588.1 455.21 601 468.12 596.48 469.07 593.47 469.71 581.83 448.15 581.83" fill="#f2b3c1"></polygon>
    <path d="M455.02,601.59l-9.23-13.4,1.99-6.86h22.44l-.68,12.28-1.02,3.25-13.5,4.74Zm-8.15-13.58l8.53,12.4,12.32-4.32,.86-2.72,.6-11.06h-20.66l-1.65,5.7Z" fill="#002346"></path>
  </g>
  <g>
    <path d="M509.84,474.77h94.86c4.38,0,7.93,3.55,7.93,7.93v1.62c0,4.38-3.55,7.92-7.93,7.92h-94.9v-17.47h.04Z" fill="#fff"></path>
    <path d="M604.7,492.74h-95.4v-18.47h95.4c4.65,0,8.43,3.78,8.43,8.43v1.62c0,4.64-3.79,8.42-8.43,8.42Zm-94.4-1h94.4c4.09,0,7.42-3.33,7.43-7.42v-1.62c0-4.1-3.33-7.43-7.43-7.43h-94.4v16.47Z" fill="#002346"></path>
  </g>
  <g>
    <path d="M383.02,436.44h309.19v23.13c0,2.51-2.04,4.55-4.55,4.55H387.57c-2.51,0-4.55-2.04-4.55-4.55v-23.13h0Z" fill="#e6e7e8"></path>
    <path d="M687.67,464.62H387.57c-2.78,0-5.05-2.27-5.05-5.05v-23.63h310.19v23.63c0,2.78-2.27,5.05-5.05,5.05Zm-304.14-27.68v22.63c0,2.23,1.82,4.05,4.05,4.05h300.09c2.23,0,4.05-1.82,4.05-4.05v-22.63H383.52Z" fill="#002346"></path>
  </g>
  <g>
    <rect x="549.79" y="274.76" width="27" height="48" rx="13.5" ry="13.5" fill="#f2b3c1"></rect>
    <path d="M563.29,323.25c-7.72,0-13.99-6.28-13.99-13.99v-21c0-7.71,6.28-13.99,13.99-13.99s13.99,6.28,13.99,13.99v21c0,7.71-6.28,13.99-13.99,13.99Zm0-48c-7.17,0-13.01,5.83-13.01,13.01v21c0,7.17,5.84,13.01,13.01,13.01s13.01-5.83,13.01-13.01v-21c0-7.17-5.84-13.01-13.01-13.01Z" fill="#002346"></path>
  </g>
  <g>
    <path d="M577.38,301.66s.69-23.49-12.84-17c-.14,.02-8.05-6.31-14.74,5.1,0,0-1.88-8.92,1.7-14.97,0,0,3.08-6.91,10-2.5,0,0,7.09-3.78,12.52,.94,3.52,2.36,7.44,4.05,11.57,5,0,0,10.27,.61,8.1,10.98-.3,1.42-.83,2.78-1.49,4.08-1.6,3.17-5.41,11.27-6.15,17.76,0,0-6.08-.44-4.57-6.24l-1.54-10-2.25,7.24" fill="#002346"></path>
    <path d="M586.5,311.58l-.48-.03c-.12,0-2.98-.24-4.45-2.28-.84-1.17-1.04-2.68-.59-4.48l-1.2-7.76-1.61,5.17-.96-.3,.07-.24h-.41c0-.14,.32-13.27-5.08-16.78-1.85-1.2-4.22-1.12-7.05,.23l-.15,.04c-.19,.03-.31-.05-.5-.17-2.79-1.77-5.17-1.71-6.67-1.35-2.68,.65-5.11,2.79-7.21,6.38l-.65,1.12-.27-1.27c-.08-.37-1.88-9.18,1.76-15.33,.03-.08,1.4-3.07,4.38-3.97,1.86-.56,3.91-.17,6.08,1.15,1.37-.64,7.8-3.23,12.82,1.13,3.43,2.29,7.27,3.95,11.35,4.89h0c.12,0,4.65,.31,7.18,3.61,1.55,2.02,1.98,4.7,1.3,7.96-.28,1.33-.78,2.71-1.53,4.2-1.59,3.16-5.37,11.19-6.1,17.59l-.05,.48Zm-6.39-18.99l1.89,12.24-.03,.1c-.4,1.54-.26,2.8,.41,3.74,.87,1.22,2.46,1.66,3.24,1.8,.88-6.47,4.56-14.3,6.13-17.42,.71-1.42,1.19-2.71,1.45-3.96,.62-2.96,.24-5.36-1.11-7.14-2.25-2.94-6.49-3.23-6.53-3.24-4.29-.98-8.24-2.68-11.82-5.08-5.16-4.48-11.94-.95-12.01-.91l-.26,.14-.25-.16c-2.01-1.28-3.85-1.68-5.49-1.19-2.54,.76-3.77,3.45-3.79,3.47-2.67,4.51-2.23,10.71-1.88,13.37,2.08-3.14,4.47-5.06,7.12-5.7,1.68-.41,4.31-.48,7.37,1.43,3.06-1.4,5.67-1.42,7.78-.06,4.62,3,5.41,11.86,5.53,15.77l2.24-7.21Z" fill="#002346"></path>
  </g>
  <g>
    <ellipse cx="580.84" cy="297.63" rx="5.69" ry="3.8" transform="translate(183.48 815.38) rotate(-79.63)" fill="#f2b3c1"></ellipse>
    <path d="M580.27,303.76c-.18,0-.36-.02-.54-.05-2.33-.43-3.72-3.5-3.1-6.86h0c.29-1.59,.98-3.02,1.95-4.01,1.02-1.05,2.22-1.51,3.38-1.3,1.16,.21,2.12,1.07,2.7,2.41,.55,1.28,.69,2.85,.4,4.44-.57,3.09-2.65,5.36-4.79,5.36Zm-2.68-6.73c-.52,2.82,.52,5.38,2.31,5.71,1.79,.33,3.67-1.7,4.19-4.52,.26-1.4,.14-2.78-.34-3.88-.44-1.03-1.15-1.68-1.98-1.83-.83-.15-1.72,.21-2.5,1.02-.83,.86-1.43,2.11-1.69,3.51h0Z" fill="#002346"></path>
  </g>
  <g>
    <polygon points="547.21 571.08 553.38 582.29 540.63 591.55 531.98 582.93 530.98 573.6 547.21 571.08" fill="#f2b3c1"></polygon>
    <path d="M540.58,592.2l-9.07-9.04-1.07-9.98,17.02-2.65,6.56,11.89-13.44,9.77Zm-8.13-9.49l8.23,8.2,12.06-8.77-5.8-10.53-15.42,2.4,.93,8.7Z" fill="#002346"></path>
  </g>
  <g>
    <path d="M550.04,572.62l-21.22,11.36-36.12-69.64-21.22,69.64-23.28-2.16,19.76-117.69h126.43s-7.39,16.74-41.26,13.75l-30.85,.3,27.76,94.44Z" fill="#fbe493"></path>
    <path d="M528.6,584.66l-35.79-69-20.98,68.86-24.22-2.25,19.92-118.64h127.62l-.31,.7c-.31,.7-7.93,17.04-41.76,14.05l-30.14,.29,27.69,94.2-22.02,11.79Zm-79.83-3.29l22.34,2.07,21.46-70.42,36.45,70.28,20.42-10.93-27.83-94.68,31.51-.31c29.1,2.57,38.52-9.64,40.42-12.75h-125.16l-19.6,116.74Z" fill="#002346"></path>
  </g>
  <g>
    <path d="M557.93,593.44l-42.4,19.55s-6.57-5.79,1-14.48l11.92-15.35c.51-.63,1.34-.9,2.12-.67,3.66,1.12,12.55,4.34,13.19,4.43,.13,0,4.52-5.4,7-8.06,.52-.56,1.4-.6,1.96-.08,.11,.1,.2,.22,.28,.35l6.08,10.89c.65,1.19,.22,2.68-.96,3.33-.06,.03-.12,.06-.19,.09Z" fill="#f69074"></path>
    <path d="M515.45,613.59l-.24-.22c-.07-.06-6.85-6.22,.95-15.18l11.9-15.33c.64-.8,1.68-1.12,2.65-.84,1.9,.58,5.13,1.7,7.99,2.69,2.06,.71,4.19,1.45,4.91,1.67,.32-.35,1.04-1.21,1.8-2.1,1.5-1.78,3.56-4.22,4.99-5.75,.34-.37,.81-.58,1.31-.61,.51,0,.99,.16,1.36,.5,.15,.14,.28,.3,.38,.48l6.08,10.89c.79,1.43,.26,3.22-1.16,4.01-.07,.04-.14,.08-.22,.11l-42.69,19.69Zm14.57-30.67c-.45,0-.88,.2-1.17,.56l-11.92,15.34c-6.43,7.38-2.36,12.46-1.29,13.58l42.09-19.41c.05-.02,.1-.05,.15-.07,.94-.52,1.29-1.71,.77-2.65l-6.08-10.89c-.05-.09-.11-.16-.18-.23-.18-.16-.4-.24-.64-.24-.24,.01-.46,.11-.62,.29-1.41,1.51-3.46,3.94-4.96,5.71q-2.12,2.51-2.41,2.51c-.4-.05-1.86-.55-5.39-1.77-2.85-.99-6.07-2.1-7.95-2.68-.14-.04-.28-.06-.41-.06Z" fill="#002346"></path>
  </g>
  <g>
    <path d="M465.41,610.83l-49.66-7.38s-2.32-9.18,9.68-12.64l19.95-6.93c.82-.29,1.75-.04,2.3,.64,2.58,3.2,8.51,11.43,9.05,11.88,.17,.15,7.31-2.24,11.14-3.2,.79-.2,1.59,.27,1.79,1.05,.04,.17,.06,.35,.04,.53l-1.22,13.55c-.11,1.5-1.41,2.62-2.91,2.52-.05,0-.11,0-.16-.02Z" fill="#f69074"></path>
    <path d="M465.77,611.35c-.08,0-.16,0-.23,0-.06,0-.13-.01-.19-.02h0s-49.99-7.43-49.99-7.43l-.08-.32c-.02-.1-2.3-9.69,10.03-13.24l19.92-6.92c1.02-.36,2.16-.04,2.85,.8,1.29,1.59,3.39,4.42,5.25,6.92,1.46,1.96,3.09,4.15,3.6,4.75,.57-.13,2.2-.63,3.78-1.11,2.27-.69,5.1-1.56,7.05-2.05,1.05-.27,2.12,.36,2.4,1.42,.06,.23,.08,.47,.05,.7l-1.22,13.54c-.12,1.68-1.54,2.98-3.21,2.98Zm-.29-1.02h.13c1.22,.11,2.29-.82,2.37-2.04l1.22-13.56c.01-.12,0-.24-.02-.36-.13-.52-.66-.83-1.18-.7-1.93,.48-4.74,1.34-7,2.04q-4.3,1.32-4.59,1.06c-.28-.23-1.34-1.65-3.88-5.06-1.85-2.49-3.95-5.31-5.22-6.88-.42-.51-1.12-.71-1.74-.48l-19.95,6.93c-10.28,2.97-9.7,10.1-9.42,11.72l49.31,7.33Z" fill="#002346"></path>
  </g>
  <g>
    <circle cx="284.66" cy="178.17" r="4.75" fill="#fbe493"></circle>
    <path d="M284.67,183.42c-2.89,0-5.25-2.36-5.25-5.25s2.36-5.25,5.25-5.25,5.25,2.36,5.25,5.25-2.36,5.25-5.25,5.25Zm0-9.5c-2.34,0-4.25,1.91-4.25,4.25s1.91,4.25,4.25,4.25,4.25-1.91,4.25-4.25-1.91-4.25-4.25-4.25Z" fill="#002346"></path>
  </g>
  <g>
    <circle cx="338.84" cy="138.52" r="4.75" fill="#fbe493"></circle>
    <path d="M338.83,143.78c-2.89,0-5.25-2.36-5.25-5.25s2.36-5.25,5.25-5.25,5.25,2.36,5.25,5.25-2.36,5.25-5.25,5.25Zm0-9.5c-2.34,0-4.25,1.91-4.25,4.25s1.91,4.25,4.25,4.25,4.25-1.91,4.25-4.25-1.91-4.25-4.25-4.25Z" fill="#002346"></path>
  </g>
  <g>
    <circle cx="375.94" cy="119.88" r="4.75" fill="#f69074"></circle>
    <path d="M375.95,125.13c-2.89,0-5.25-2.36-5.25-5.25s2.36-5.25,5.25-5.25,5.25,2.36,5.25,5.25-2.36,5.25-5.25,5.25Zm0-9.5c-2.34,0-4.25,1.91-4.25,4.25s1.91,4.25,4.25,4.25,4.25-1.91,4.25-4.25-1.91-4.25-4.25-4.25Z" fill="#002346"></path>
  </g>
  <g>
    <circle cx="317.72" cy="163.92" r="4.75" fill="#f69074"></circle>
    <path d="M317.72,169.17c-2.89,0-5.25-2.36-5.25-5.25s2.36-5.25,5.25-5.25,5.25,2.36,5.25,5.25-2.36,5.25-5.25,5.25Zm0-9.5c-2.34,0-4.25,1.91-4.25,4.25s1.91,4.25,4.25,4.25,4.25-1.91,4.25-4.25-1.91-4.25-4.25-4.25Z" fill="#002346"></path>
  </g>
  <g>
    <path d="M331.4,223.22c-15.91-7.33-34.74-.37-42.07,15.54-7.33,15.91-.37,34.74,15.54,42.07,9.3,4.28,20.1,3.81,28.99-1.27l-8.73-13.46c-7.77,3.85-17.2,.67-21.05-7.1-3.85-7.77-.67-17.2,7.1-21.05,3.84-1.9,8.29-2.15,12.32-.7l7.9-14.03Z" fill="#f69074"></path>
    <path d="M318.12,284.22c-4.59,0-9.19-.98-13.47-2.95-16.13-7.43-23.21-26.6-15.78-42.73s26.6-23.21,42.73-15.79l.49,.23-8.37,14.87-.4-.14c-3.88-1.4-8.23-1.16-11.93,.67-3.64,1.8-6.36,4.92-7.66,8.77s-1.02,7.97,.78,11.62,4.92,6.36,8.77,7.66c3.85,1.3,7.97,1.02,11.61-.78l.4-.2,9.26,14.28-.46,.26c-4.92,2.81-10.45,4.23-15.98,4.23Zm.06-63.41c-11.81,0-23.14,6.74-28.4,18.15-3.49,7.57-3.82,16.05-.93,23.87,2.89,7.82,8.65,14.05,16.22,17.53,8.97,4.13,19.42,3.75,28.07-.99l-8.2-12.64c-3.78,1.75-8.01,1.98-11.98,.64-4.1-1.38-7.42-4.28-9.34-8.16-1.92-3.88-2.22-8.28-.83-12.38s4.28-7.42,8.16-9.34c3.82-1.89,8.28-2.19,12.31-.86l7.43-13.19c-4.07-1.79-8.32-2.64-12.51-2.64Z" fill="#002346"></path>
  </g>
  <g>
    <circle cx="361.91" cy="343.08" r="2.58" fill="#f69074"></circle>
    <path d="M361.92,346.16c-1.7,0-3.08-1.38-3.08-3.08s1.38-3.08,3.08-3.08,3.08,1.38,3.08,3.08-1.38,3.08-3.08,3.08Zm0-5.16c-1.15,0-2.08,.93-2.08,2.08s.93,2.08,2.08,2.08,2.08-.93,2.08-2.08-.93-2.08-2.08-2.08Z" fill="#002346"></path>
  </g>
  <g>
    <circle cx="388.09" cy="328.74" r="2.58" fill="#f69074"></circle>
    <path d="M388.09,331.82c-1.7,0-3.08-1.38-3.08-3.08s1.38-3.08,3.08-3.08,3.08,1.38,3.08,3.08-1.38,3.08-3.08,3.08Zm0-5.16c-1.15,0-2.08,.93-2.08,2.08s.93,2.08,2.08,2.08,2.08-.93,2.08-2.08-.93-2.08-2.08-2.08Z" fill="#002346"></path>
  </g>
  <g>
    <circle cx="408.74" cy="344.02" r="2.58" fill="#f69074"></circle>
    <path d="M408.73,347.1c-1.7,0-3.08-1.38-3.08-3.08s1.38-3.08,3.08-3.08,3.08,1.38,3.08,3.08-1.38,3.08-3.08,3.08Zm0-5.16c-1.15,0-2.08,.93-2.08,2.08s.93,2.08,2.08,2.08,2.08-.93,2.08-2.08-.93-2.08-2.08-2.08Z" fill="#002346"></path>
  </g>
  <g>
    <circle cx="433.62" cy="328.74" r="2.58" fill="#f69074"></circle>
    <path d="M433.62,331.82c-1.7,0-3.08-1.38-3.08-3.08s1.38-3.08,3.08-3.08,3.08,1.38,3.08,3.08-1.38,3.08-3.08,3.08Zm0-5.16c-1.15,0-2.08,.93-2.08,2.08s.93,2.08,2.08,2.08,2.08-.93,2.08-2.08-.93-2.08-2.08-2.08Z" fill="#002346"></path>
  </g>
  <g>
    <circle cx="468.4" cy="335.93" r="2.58" fill="#f69074"></circle>
    <path d="M468.41,339c-1.7,0-3.08-1.38-3.08-3.08s1.38-3.08,3.08-3.08,3.08,1.38,3.08,3.08-1.38,3.08-3.08,3.08Zm0-5.16c-1.15,0-2.08,.93-2.08,2.08s.93,2.08,2.08,2.08,2.08-.93,2.08-2.08-.93-2.08-2.08-2.08Z" fill="#002346"></path>
  </g>
  <g>
    <circle cx="189.73" cy="80.82" r="3.28" fill="#fff"></circle>
    <path d="M189.73,84.61c-2.08,0-3.78-1.7-3.78-3.78s1.7-3.78,3.78-3.78,3.78,1.7,3.78,3.78-1.7,3.78-3.78,3.78Zm0-6.56c-1.53,0-2.78,1.25-2.78,2.78s1.25,2.78,2.78,2.78,2.78-1.25,2.78-2.78-1.25-2.78-2.78-2.78Z" fill="#002346"></path>
  </g>
  <g>
    <circle cx="199.77" cy="80.82" r="3.28" fill="#fff"></circle>
    <path d="M199.77,84.61c-2.08,0-3.78-1.7-3.78-3.78s1.7-3.78,3.78-3.78,3.78,1.7,3.78,3.78-1.7,3.78-3.78,3.78Zm0-6.56c-1.53,0-2.78,1.25-2.78,2.78s1.25,2.78,2.78,2.78,2.78-1.25,2.78-2.78-1.25-2.78-2.78-2.78Z" fill="#002346"></path>
  </g>
  <g>
    <circle cx="179.94" cy="80.82" r="3.28" fill="#fff"></circle>
    <path d="M179.95,84.61c-2.08,0-3.78-1.7-3.78-3.78s1.7-3.78,3.78-3.78,3.78,1.7,3.78,3.78-1.7,3.78-3.78,3.78Zm0-6.56c-1.53,0-2.78,1.25-2.78,2.78s1.25,2.78,2.78,2.78,2.78-1.25,2.78-2.78-1.25-2.78-2.78-2.78Z" fill="#002346"></path>
  </g>
  <path d="M569.96,340.36s-.09,0-.13-.02c-.13-.03-.24-.12-.31-.24l-5.52-9.95c-.13-.24-.05-.55,.19-.68,.24-.13,.55-.05,.68,.2l5.27,9.49,20.68-12.66c.24-.14,.54-.07,.69,.17s.07,.54-.17,.69l-21.13,12.93c-.08,.05-.17,.07-.26,.07Z" fill="#002346"></path>
  <path d="M551.56,380.7c-.22,0-.42-.15-.48-.37-3.73-14.08,8.4-39.5,8.92-40.58,.12-.25,.42-.36,.67-.23,.25,.12,.35,.42,.23,.67-.13,.26-12.49,26.17-8.85,39.89,.07,.27-.09,.54-.36,.61-.04,.01-.09,.02-.13,.02Z" fill="#002346"></path>
  <path d="M553.12,401.48c-.22,0-.43-.15-.48-.38-.07-.27,.1-.54,.36-.61l21.39-5.33-.8-39.4c-.08-3.85,1.36-7.49,4.06-10.24,2.7-2.75,6.3-4.27,10.15-4.27,7.84,0,14.22,6.38,14.22,14.22v6.09c0,.28-.22,.5-.5,.5s-.5-.22-.5-.5v-6.09c0-7.29-5.93-13.22-13.22-13.22-3.58,0-6.93,1.41-9.44,3.97s-3.85,5.94-3.77,9.52l.8,39.8c0,.23-.15,.44-.38,.5l-21.78,5.43s-.08,.01-.12,.01Z" fill="#002346"></path>
  <path d="M538.66,371.83c-.22,0-.43-.15-.48-.38-2.17-8.57,1.14-12.66,1.28-12.83,.18-.21,.49-.24,.7-.06,.21,.18,.24,.49,.07,.7-.03,.04-3.11,3.91-1.08,11.95,.07,.27-.09,.54-.36,.61-.04,.01-.08,.02-.12,.02Z" fill="#002346"></path>
  <path d="M510.79,405.35c-.07,0-.15-.02-.22-.05l-8.5-4.64c-.22-.12-.3-.39-.18-.61,.12-.22,.39-.3,.61-.18l8.5,4.64c.22,.12,.3,.39,.18,.61-.08,.15-.24,.23-.4,.23Z" fill="#002346"></path>
  <path d="M509.15,408.19c-.07,0-.15-.02-.22-.06l-9.86-5.48c-.22-.12-.3-.39-.17-.61s.39-.3,.61-.17l9.86,5.48c.22,.12,.3,.39,.17,.61-.08,.15-.24,.23-.39,.23Z" fill="#002346"></path>
  <path d="M507.69,411.3c-.07,0-.15-.02-.22-.06l-8.9-4.96c-.22-.12-.3-.4-.17-.61,.12-.22,.4-.29,.61-.17l8.9,4.96c.22,.12,.3,.4,.17,.61-.08,.15-.24,.23-.39,.23Z" fill="#002346"></path>
  <path d="M546.33,421.91c-.28,0-.5-.22-.5-.5v-13.04c0-.28,.22-.5,.5-.5s.5,.22,.5,.5v13.04c0,.28-.22,.5-.5,.5Z" fill="#002346"></path>
  <path d="M586.24,404.02c-.16,0-.31-.08-.39-.23-3.42-5.94-10.97-7.79-11.04-7.81-.24-.06-.39-.3-.33-.54,.06-.24,.3-.39,.54-.33,.32,.08,8,1.95,11.62,8.23,.12,.22,.05,.49-.17,.62-.07,.04-.15,.06-.22,.06Z" fill="#002346"></path>
  <path d="M555.56,425.03c-.23,0-.43-.18-.45-.41-.02-.25,.16-.47,.41-.49,.43-.04,43-3.7,47.84-19.37,.07-.24,.33-.37,.56-.3,.24,.07,.37,.33,.3,.56-5.02,16.25-46.85,19.86-48.63,20-.01,0-.03,0-.04,0Z" fill="#002346"></path>
  <g>
    <rect x="370.41" y="428.59" width="334.92" height="7.85" rx="3.56" ry="3.56" fill="#fff"></rect>
    <path d="M701.77,436.95H373.97c-2.24,0-4.06-1.82-4.06-4.06v-.73c0-2.24,1.82-4.06,4.06-4.06h327.8c2.24,0,4.06,1.82,4.06,4.06v.73c0,2.24-1.82,4.06-4.06,4.06Zm-327.8-7.85c-1.69,0-3.06,1.37-3.06,3.06v.73c0,1.69,1.37,3.06,3.06,3.06h327.8c1.69,0,3.06-1.37,3.06-3.06v-.73c0-1.69-1.37-3.06-3.06-3.06H373.97Z" fill="#002346"></path>
  </g>
  <path d="M493.65,508.9s-.08,0-.12-.01c-.27-.07-.43-.34-.37-.6l7.46-30.42c.05-.22,.26-.38,.49-.38h15.39c.28,0,.5,.22,.5,.5s-.22,.5-.5,.5h-15l-7.36,30.04c-.06,.23-.26,.38-.49,.38Z" fill="#002346"></path>
  <g>
    <ellipse cx="562.88" cy="284.66" rx="9.5" ry="5" fill="#002346"></ellipse>
    <path d="M562.88,290.16c-5.61,0-10-2.42-10-5.5s4.39-5.5,10-5.5,10,2.42,10,5.5-4.39,5.5-10,5.5Zm0-10c-4.88,0-9,2.06-9,4.5s4.12,4.5,9,4.5,9-2.06,9-4.5-4.12-4.5-9-4.5Z" fill="#002346"></path>
  </g>
  <g>
    <g>
      <path d="M335.59,528.08s19.29-16.22,41.19-.44c0,0,13.75,10.7,4.58,19.86,0,0-9.68,6.62-23.94-4.58,0,0-15.16-12.37-21.84-14.84Z" fill="#7cd295"></path>
      <path d="M373.62,549.92c-4.24,0-9.92-1.41-16.51-6.59-.16-.13-15.17-12.35-21.7-14.77l-.83-.31,.68-.57c.2-.16,19.85-16.3,41.82-.46,.32,.25,7.51,5.91,7.93,12.7,.18,2.91-.92,5.59-3.28,7.95-.09,.07-3.09,2.05-8.11,2.05Zm-37.01-21.98c7,3.08,20.54,14.1,21.14,14.58,13.8,10.84,23.23,4.62,23.32,4.56,2.07-2.08,3.07-4.49,2.91-7.09-.39-6.32-7.45-11.89-7.52-11.94-19.01-13.7-36.23-2.74-39.85-.11Z" fill="#002346"></path>
    </g>
    <g>
      <path d="M314.26,520.15s21.27-29.69,8.53-58.72c0,0-14.26-28.52,2.55-37.18,0,0,20.88-8.66,32.09,21.9,0,0,15.02,44.6-43.17,74Z" fill="#7cd295"></path>
      <path d="M312.63,521.55l1.22-1.7c.21-.29,20.95-29.79,8.48-58.21-.13-.27-14.28-29.05,2.78-37.84,.33-.14,7.39-2.99,15.61,.62,7.34,3.22,13.12,10.47,17.19,21.56,.04,.13,3.77,11.47,.25,26.27-3.23,13.63-13.44,33.09-43.67,48.36l-1.87,.94Zm19.47-97.91c-3.87,0-6.52,1.07-6.56,1.09-16.12,8.31-2.42,36.19-2.28,36.48,11.01,25.1-3.31,50.93-7.49,57.6,28.51-14.94,38.26-33.6,41.39-46.74,3.46-14.52-.17-25.64-.21-25.75-3.96-10.81-9.56-17.86-16.63-20.96-2.98-1.31-5.82-1.71-8.21-1.71Z" fill="#002346"></path>
    </g>
    <g>
      <path d="M260.2,434.6c-5.28,2.6-8.75,7.96-8.66,13.84,.11,7.35,4.62,17.48,25.92,23.18,0,0,24.99,6.19,27.77,24.74,0,0,6.89-22.99-4.86-44.94-4.5-8.41-12-14.91-21.13-17.68-5.73-1.74-12.58-2.33-19.04,.86Z" fill="#7cd295"></path>
      <path d="M305.07,498.71l-.34-2.27c-2.7-17.99-27.14-24.26-27.39-24.32-21.55-5.77-26.2-16.06-26.31-23.67-.09-5.97,3.43-11.59,8.95-14.31h0c5.65-2.78,12.18-3.08,19.42-.89,9.11,2.76,16.72,9.13,21.43,17.93,11.72,21.89,4.97,45.1,4.9,45.33l-.66,2.2Zm-34.81-65.88c-3.53,0-6.81,.74-9.83,2.23h0c-5.17,2.55-8.46,7.8-8.38,13.38,.11,7.26,4.62,17.09,25.54,22.69,.23,.06,23.29,5.96,27.68,22.89,1.34-6.25,4.07-24.74-5.36-42.34-4.58-8.56-11.98-14.75-20.82-17.43-3.09-.94-6.04-1.41-8.84-1.41Z" fill="#002346"></path>
    </g>
    <g>
      <path d="M259.02,510.96c1.28,2.45,3.66,5.16,7.75,8.03,0,0,16.08,9.33,20.27,22.49,0,0-.4-21.47-12.63-37.77,0,0-1.06-2.01-3.24-3.57-7.2-5.19-16.28,2.97-12.15,10.83Z" fill="#7cd295"></path>
      <path d="M287.62,545l-1.07-3.37c-4.07-12.82-19.87-22.11-20.03-22.2-3.81-2.67-6.48-5.43-7.95-8.23h0c-2.3-4.38-.63-8.69,2.04-11.01,3.17-2.75,7.43-2.94,10.86-.47,2.25,1.62,3.35,3.67,3.4,3.75,12.14,16.17,12.68,37.78,12.69,38l.07,3.53Zm-21.26-45.98c-2.03,0-3.84,.86-5.08,1.94-2.2,1.91-3.99,5.61-1.8,9.76h0c1.4,2.66,3.95,5.3,7.59,7.85,.58,.33,13.82,8.11,19.22,19.61-.66-6.63-3.13-21.95-12.29-34.16-.05-.09-1.08-1.99-3.13-3.47-1.53-1.1-3.07-1.53-4.51-1.53Z" fill="#002346"></path>
    </g>
    <g>
      <polygon points="278.49 561.78 281.19 615 326.36 615 329.42 562.28 278.49 561.78" fill="#fff"></polygon>
      <path d="M326.36,615.52h-45.17c-.27,0-.5-.21-.51-.49l-2.71-53.22c0-.14,.04-.28,.14-.38,.1-.1,.22-.16,.38-.16l50.93,.51c.14,0,.27,.06,.37,.16,.1,.1,.15,.24,.14,.38l-3.06,52.72c-.02,.27-.24,.48-.51,.48Zm-44.68-1.03h44.19l3-51.69-49.85-.49,2.65,52.19Z" fill="#002346"></path>
    </g>
    <path d="M313.63,562.03s-.03,0-.04,0c-.28-.02-.49-.27-.47-.55,.02-.21,1.76-21.22,16.21-31.01,8.56-5.79,19.78-6.57,33.35-2.3,.27,.08,.42,.37,.34,.64s-.37,.42-.64,.34c-13.25-4.17-24.17-3.44-32.46,2.17-14.04,9.5-15.75,30.03-15.77,30.24-.02,.27-.25,.47-.51,.47Z" fill="#002346"></path>
    <path d="M305.79,561.68c-.22,0-.43-.15-.49-.38-8-28.61,11.38-45.2,15.34-48.23,1.18-.9,2.57-1.98,3.91-3.13,35.19-30.29,14.83-64.19,14.62-64.53-.15-.24-.07-.56,.17-.71,.24-.15,.56-.07,.71,.17,.21,.35,21.04,34.98-14.83,65.85-1.36,1.17-2.76,2.26-3.95,3.17-3.87,2.96-22.8,19.16-14.98,47.14,.08,.27-.08,.56-.36,.63-.05,.01-.09,.02-.14,.02Z" fill="#002346"></path>
    <path d="M302.12,562.05c-.17,0-.34-.09-.44-.24-12.45-20.06-3.17-45.61-.02-52.97,.79-1.85,1.35-3.4,1.76-4.87,8.74-31.49-17.83-50.59-18.1-50.78-.23-.16-.29-.48-.12-.72,.16-.23,.48-.29,.72-.12,.28,.19,27.44,19.7,18.5,51.89-.42,1.51-.99,3.1-1.8,5-3.09,7.24-12.23,32.38-.05,52.02,.15,.24,.08,.56-.17,.71-.08,.05-.18,.08-.27,.08Z" fill="#002346"></path>
    <path d="M289.03,561.74s-.01,0-.02,0c-.28-.01-.5-.25-.49-.53,1.35-33.45-18.27-46.75-18.46-46.88-.24-.16-.3-.47-.15-.71,.16-.24,.47-.3,.71-.15,.2,.13,20.3,13.72,18.93,47.78-.01,.28-.24,.49-.51,.49Z" fill="#002346"></path>
  </g>
</svg>
